Coordinates
version=1
nRows=6
nColumns=36
inDegrees=yes

Units are S.I. units (second, meters, Newtons, ...)
If the header above contains a line with 'inDegrees', this indicates whether rotational values are in degrees (yes) or radians (no).

endheader
time	pelvis_tilt	pelvis_list	pelvis_rotation	pelvis_tx	pelvis_ty	pelvis_tz	hip_flexion_r	hip_adduction_r	hip_rotation_r	knee_angle_r	knee_angle_r_beta	ankle_angle_r	subtalar_angle_r	mtp_angle_r	hip_flexion_l	hip_adduction_l	hip_rotation_l	knee_angle_l	knee_angle_l_beta	ankle_angle_l	subtalar_angle_l	mtp_angle_l	lumbar_extension	lumbar_bending	lumbar_rotation	arm_flex_r	arm_add_r	arm_rot_r	elbow_flex_r	pro_sup_r	arm_flex_l	arm_add_l	arm_rot_l	elbow_flex_l	pro_sup_l
      0.66000000	    -12.20982651	      0.07913915	      0.27602731	     -0.98474854	      1.24076199	     -0.07444439	     20.64434841	     -0.23832447	     -4.40298245	     13.59568926	      0.23728954	      6.15334018	    -17.64847000	     -7.49999987	     21.53678145	     -0.57404412	      0.58371588	     16.21095514	      0.28293454	      7.25825396	    -10.82325911	     -7.49999987	    -26.11017388	     -1.19224794	     -0.33377700	     -0.59584734	    -12.04560018	     39.05999165	     11.35960901	     50.93207772	      1.38113576	    -13.12501149	     30.28597672	      7.18859475	     45.78725630
      0.66166670	    -12.23387519	      0.04162735	      0.23721146	     -0.98392027	      1.23622937	     -0.07522549	     20.95833970	     -0.19205110	     -4.28867049	     14.13431450	      0.24669033	      6.34659467	    -17.72882939	     -7.49999987	     21.84779494	     -0.67989147	      0.37751926	     16.72006998	      0.29182027	      7.63756413	    -10.47517603	     -7.49999987	    -26.57935105	     -1.20652025	     -0.33536651	     -0.82903695	    -12.12520960	     38.96789295	     11.38618529	     50.73326788	      1.02500443	    -13.11678184	     29.13656472	      7.34113347	     45.20091005
      0.66333330	    -12.36446844	      0.02495983	      0.21343334	     -0.98230243	      1.23524082	     -0.07473749	     21.39115973	     -0.17213861	     -4.14109260	     14.74902174	      0.25741899	      6.46145708	    -17.92101431	     -7.49999987	     22.25254595	     -0.75645727	      0.19818555	     17.27207428	      0.30145456	      7.95462704	    -10.24430446	     -7.49999987	    -26.78716833	     -1.30452902	     -0.31448252	     -1.12833177	    -12.21237291	     38.65517122	     11.25656650	     51.43610933	      0.60438177	    -13.18625315	     28.26130942	      7.27747184	     46.26398256
      0.66500000	    -12.46933108	     -0.00740569	      0.15255590	     -0.98504448	      1.23665195	     -0.07468953	     21.82044459	     -0.12710142	     -3.88233724	     15.35543332	      0.26800287	      6.74388131	    -18.07656640	     -7.49999987	     22.65610247	     -0.84393831	      0.01068613	     17.78580825	      0.31042091	      8.27458672	    -10.07209335	     -7.49999987	    -27.14449168	     -1.31975616	     -0.19022481	     -1.27411807	    -12.27904239	     38.09807769	     11.06111878	     52.29674811	      0.43755707	    -13.17834794	     27.27873626	      7.11133779	     47.59850015
      0.66666670	    -12.39289201	      0.01705927	      0.16563793	     -0.98417394	      1.23427781	     -0.07605160	     22.06120818	     -0.20671450	     -3.79278534	     15.94039721	      0.27821242	      6.79971443	    -18.29249842	     -7.49999987	     22.83337050	     -0.82456127	     -0.15739949	     18.28528372	      0.31913841	      8.62150639	     -9.78592007	     -7.49999987	    -27.73710784	     -1.38040409	     -0.39025559	     -1.36776544	    -12.29121560	     37.57023096	     11.11714402	     52.60943004	      0.03357483	    -13.09912594	     26.13651809	      7.29537887	     48.09545291
      0.66833330	    -12.45803475	     -0.00522124	      0.16528557	     -0.98489824	      1.23270090	     -0.07483918	     22.51101355	     -0.21242992	     -3.66953067	     16.63580055	      0.29034949	      6.97635959	    -18.54082823	     -7.49999987	     23.24631847	     -0.90015982	     -0.34887532	     18.94050922	      0.33057425	      8.94248738	     -9.76078778	     -7.49999987	    -28.12504682	     -1.34697292	     -0.37109986	     -1.62003993	    -12.18205820	     37.22683409	     10.97948389	     52.72133161	     -0.18575200	    -13.13207465	     25.44300043	      7.25795596	     48.27921870
